<svg width="50" height="50" fill="none" xmlns="http://www.w3.org/2000/svg"><g clip-path="url(#clip0_112_4646)"><circle cx="25" cy="25" r="25" fill="#fff"/><path d="M35.219 14H15.141c-1.18 0-2.141.96-2.141 2.141v14.511c0 1.18.96 2.141 2.141 2.141h7.194l-.628 2.78h-3.01V37h12.966v-1.427h-3.01l-.628-2.78h7.194c1.18 0 2.141-.96 2.141-2.14V16.14c0-1.18-.96-2.141-2.141-2.141zm-20.078 1.427h20.078c.393 0 .714.32.714.714V27.56H14.427V16.14c0-.393.32-.714.714-.714zm11.421 17.366l.627 2.78h-4.018l.627-2.78h2.764zm8.657-1.427H15.141a.715.715 0 01-.714-.714v-1.665h21.506v1.665c0 .394-.32.714-.714.714z" fill="#F53B49"/><path d="M19.895 23.392l4.804-4.805 1.01 1.009-4.805 4.805-1.01-1.01zm4.757 0l4.805-4.805 1.01 1.01-4.805 4.804-1.01-1.009z" fill="#F53B49"/></g><defs><clipPath id="clip0_112_4646"><path fill="#fff" d="M0 0h50v50H0z"/></clipPath></defs></svg>