<svg width="50" height="50" fill="none" xmlns="http://www.w3.org/2000/svg"><g clip-path="url(#clip0_112_4651)"><circle cx="25" cy="25" r="25" fill="#fff"/><path d="M31.344 10h-11.3c-.946 0-1.715.769-1.715 1.714v13.109c-.1.136-.268.357-.432.574-.607.802-1.524 2.014-2.071 2.875-1.079 1.7-1.1 3.4-.07 5.682a2665.447 2665.447 0 001.368 2.481c.326.602.871 1.608.837 2.4v1.904c0 .971.79 1.761 1.76 1.761h5.736c.971 0 1.761-.79 1.761-1.761l-.005-1.644c0-.633.096-.967.217-1.389a7.833 7.833 0 00.248-1.091c.094-.975-.16-1.916-.428-2.913a20.231 20.231 0 01-.43-1.836h4.524c.946 0 1.715-.769 1.715-1.714v-6.368a.635.635 0 10-1.27 0v6.368c0 .245-.2.445-.445.445h-1.497V11.269h1.497c.246 0 .445.2.445.445v13.868a.635.635 0 001.27 0V11.714c0-.945-.77-1.714-1.715-1.714zm-5.887 31.23h-5.736a.498.498 0 01-.491-.491v-1.864c.043-1.138-.602-2.33-.989-3.044l-1.338-2.423c-.844-1.88-.845-3.132-.005-4.456.367-.579.925-1.343 1.43-2.019v3.219c0 .945.77 1.714 1.715 1.714h2.036v2.118a.635.635 0 101.27 0V27.3a1.04 1.04 0 012.078-.004c-.001.218-.005 1.649-.03 2.313a11.394 11.394 0 00.13 2.205c.127.84.324 1.574.497 2.218.246.914.459 1.703.392 2.444-.055.352-.129.609-.206.88-.131.456-.267.928-.267 1.742v.007l.006 1.634a.498.498 0 01-.492.492zm3.12-10.633h-1.904c-.016-.3.022-3.078.024-3.293a2.275 2.275 0 00-.67-1.628 2.298 2.298 0 00-1.64-.684 2.31 2.31 0 00-2.309 2.308v3.297h-2.035a.445.445 0 01-.445-.445V11.714c0-.245.2-.444.445-.444h8.535v19.327z" fill="#F53B49"/></g><defs><clipPath id="clip0_112_4651"><path fill="#fff" d="M0 0h50v50H0z"/></clipPath></defs></svg>