<svg width="173" height="59" fill="none" xmlns="http://www.w3.org/2000/svg"><path d="M.865 25.871v-3.86l.727-.038c.986-.058 1.767-.413 2.344-1.065.584-.652 1.015-1.7 1.29-3.146.285-1.446.473-3.384.564-5.816L6.217.204h16.82V25.87h-4.55V4.025h-7.934l-.4 9.363c-.118 2.807-.427 5.134-.928 6.98-.493 1.848-1.304 3.226-2.432 4.137-1.12.91-2.678 1.366-4.675 1.366H.865zM38.07 14.503v3.735H27.705v-3.735H38.07zM31.302 6.62v19.25h-4.55V6.62h4.55zm12.584 19.627c-1.855 0-3.464-.422-4.826-1.266-1.353-.844-2.402-2.014-3.146-3.51-.743-1.495-1.115-3.224-1.115-5.188 0-1.964.372-3.689 1.115-5.176.744-1.488 1.793-2.649 3.146-3.485 1.362-.835 2.97-1.253 4.826-1.253 1.846 0 3.447.418 4.8 1.253 1.362.836 2.415 1.997 3.158 3.485.752 1.487 1.128 3.213 1.128 5.176 0 1.964-.376 3.693-1.128 5.189-.743 1.495-1.796 2.665-3.158 3.51-1.353.843-2.954 1.265-4.8 1.265zm0-3.76c1.094 0 1.988-.276 2.682-.827.694-.552 1.203-1.295 1.529-2.231.326-.936.489-1.984.489-3.146 0-1.161-.163-2.21-.489-3.146-.326-.936-.836-1.675-1.53-2.218-.693-.552-1.587-.828-2.681-.828-1.103 0-2.006.276-2.707.828-.694.543-1.204 1.282-1.53 2.218-.325.936-.488 1.985-.488 3.146 0 1.17.163 2.223.489 3.158.325.936.835 1.68 1.529 2.231.701.543 1.604.815 2.707.815zm13.11 3.384V6.62h4.537v7.77h1.654l5.79-7.77h5.465l-7.131 9.45 7.206 9.801h-5.49l-5.276-7.257h-2.218v7.257h-4.537zm24.468-6.141l7.708-13.11h4.663v19.25h-4.387V12.75l-7.683 13.12H77.09V6.62h4.374v13.11zM1.003 51.87l-.025-3.735h.664c.501 0 .923-.113 1.266-.338.342-.226.626-.602.852-1.128.226-.535.401-1.254.526-2.156.126-.902.214-2.026.264-3.372l.338-8.522h14.037V51.87H14.54V36.342H9.012l-.301 6.204c-.075 1.605-.255 2.996-.54 4.174-.275 1.17-.668 2.135-1.177 2.895-.502.76-1.133 1.329-1.893 1.705-.76.367-1.658.551-2.695.551H1.003zm31.014.376c-1.93 0-3.598-.401-5.001-1.203-1.396-.81-2.47-1.955-3.221-3.434-.752-1.488-1.128-3.238-1.128-5.252 0-1.98.376-3.718 1.128-5.214.76-1.504 1.821-2.673 3.183-3.509 1.362-.844 2.962-1.266 4.8-1.266a9.72 9.72 0 013.36.577 7.592 7.592 0 012.807 1.754c.819.794 1.462 1.805 1.93 3.033.468 1.22.702 2.674.702 4.362v1.391h-15.78v-3.058h11.43c-.008-.869-.195-1.642-.563-2.319a4.101 4.101 0 00-1.542-1.616c-.651-.393-1.412-.59-2.28-.59-.928 0-1.743.226-2.445.677a4.664 4.664 0 00-1.642 1.755 5.05 5.05 0 00-.589 2.369v2.67c0 1.12.205 2.08.614 2.882.41.794.982 1.404 1.717 1.83.736.418 1.596.627 2.582.627a5.49 5.49 0 001.793-.276 3.977 3.977 0 001.39-.84c.394-.367.69-.823.89-1.366l4.237.476a6.604 6.604 0 01-1.53 2.933c-.743.827-1.695 1.47-2.857 1.93-1.161.452-2.49.677-3.985.677zm20.796 0c-1.922 0-3.572-.422-4.951-1.266-1.37-.844-2.427-2.01-3.17-3.497-.736-1.495-1.104-3.217-1.104-5.163 0-1.956.376-3.681 1.128-5.177.752-1.504 1.813-2.673 3.184-3.509 1.378-.844 3.008-1.266 4.888-1.266 1.562 0 2.945.288 4.148.865 1.212.568 2.177 1.374 2.895 2.419.719 1.036 1.128 2.248 1.229 3.635h-4.337c-.175-.928-.593-1.7-1.253-2.32-.652-.626-1.525-.94-2.62-.94-.927 0-1.742.252-2.444.753-.702.493-1.249 1.203-1.642 2.13-.384.928-.576 2.04-.576 3.334 0 1.312.192 2.44.576 3.384.385.936.924 1.659 1.617 2.169.702.501 1.525.752 2.47.752.668 0 1.265-.126 1.792-.376.534-.26.981-.631 1.34-1.116.36-.484.607-1.073.74-1.767h4.337c-.109 1.362-.51 2.57-1.204 3.622-.693 1.045-1.637 1.864-2.832 2.457-1.195.585-2.599.877-4.211.877zm10.575-15.905V32.62h16.845v3.722h-6.23v15.53h-4.386v-15.53h-6.23zm33.68 4.023v3.723H86.816v-3.723h10.252zM88.22 32.62v19.25h-4.374V32.62h4.374zm11.819 0v19.25h-4.362V32.62h4.362zm8.964 13.11l7.708-13.11h4.663v19.25h-4.387V38.75l-7.683 13.122h-4.675V32.62h4.374v13.11zm33.286-13.11v15.867h2.945v9.576h-4.437V51.87h-14.764V32.62h4.374v15.529h7.545v-15.53h4.337zm9.735 6.267h5.678c2.456 0 4.357.597 5.703 1.792 1.345 1.195 2.022 2.761 2.03 4.7-.008 1.262-.318 2.381-.928 3.359-.601.977-1.478 1.746-2.632 2.306-1.144.551-2.535.827-4.173.827h-8.749V32.62h4.375v15.529h4.374c.986 0 1.796-.251 2.431-.752.635-.51.953-1.162.953-1.956 0-.835-.318-1.516-.953-2.043-.635-.526-1.445-.79-2.431-.79h-5.678v-3.721zm15.805 12.984V32.62h4.537v19.25h-4.537z" fill="#fff"/></svg>