<svg width="145" height="29" fill="none" xmlns="http://www.w3.org/2000/svg"><path d="M14.06 0C6.286 0 0 6.285 0 14.06c0 7.776 6.285 14.061 14.06 14.061 7.776 0 14.061-6.285 14.061-14.06C28.121 6.285 21.836 0 14.061 0zm-1.943 20.022l-1.037 3.045c-3.888-1.296-6.48-4.99-6.48-9.136 0-4.147 2.592-7.775 6.545-9.136l1.037 3.045c-2.592.843-4.277 3.305-4.277 6.026-.13 2.851 1.62 5.313 4.212 6.156zm4.795 3.11l-.972-3.11c2.656-.843 4.406-3.305 4.406-6.091s-1.75-5.184-4.341-6.026l1.036-3.11a9.61 9.61 0 016.61 9.136c0 4.277-2.722 7.97-6.74 9.201z" fill="#00BEF0"/><path d="M142.809 16.588l1.556 1.879c-1.62 1.684-3.629 2.138-5.249 2.138-1.555 0-2.656-.26-3.628-.713-2.074-1.037-3.111-3.11-3.111-5.637 0-3.823 2.592-6.674 6.415-6.674 4.277 0 6.35 3.175 6.026 7.322h-9.719c.065 1.037.648 2.009 1.49 2.527.713.454 1.555.648 2.657.648 1.231 0 2.462-.389 3.563-1.49zm-7.645-3.953h6.868c-.194-1.49-1.426-2.786-3.369-2.786-2.009 0-3.24 1.425-3.499 2.786zm-65.25 7.581h3.5l-5.508-6.415 5.443-6.026h-3.434l-4.147 4.795h-1.231V7.775H61.88v12.376h2.657v-4.924h1.23l4.148 4.99zM81.32 10.043c-2.268 0-3.758 1.75-3.758 3.953s1.49 3.952 3.758 3.952c2.267 0 3.693-1.684 3.693-3.952.065-2.139-1.36-3.953-3.693-3.953zm.453-2.527c3.5 0 6.091 2.722 6.091 6.48 0 3.693-2.527 6.544-6.09 6.544-1.685 0-3.046-.583-4.018-1.62v6.48h-2.721V7.84h2.656v1.49c1.037-1.23 2.398-1.814 4.082-1.814zm35.314.324h-11.08v2.462h4.211v9.914h2.722v-9.914h4.211V7.84h-.064zm-57.085 0H48.856v2.462h4.212v9.914h2.721v-9.914h4.212V7.84zm-14.385 6.22c0-2.332-1.62-4.017-3.887-4.017-2.203 0-3.888 1.685-3.888 4.018 0 2.332 1.62 4.017 3.888 4.017 2.203 0 3.887-1.685 3.887-4.017zm-10.561 0c0-3.693 2.85-6.479 6.674-6.479 3.758 0 6.674 2.786 6.674 6.48 0 3.693-2.852 6.544-6.674 6.544-3.758-.065-6.674-2.851-6.674-6.544zm95.184-6.22v12.376h-2.656v-7.97l-6.48 7.97h-2.138V7.84h2.656v7.97l6.48-7.97h2.138zm-26.112 12.376h-2.657V7.84h2.657v12.376zm-6.869-4.212c0-1.101-.777-1.879-1.814-1.879h-2.721v3.823h2.721c1.037 0 1.814-.842 1.814-1.944zm2.657 0c0 2.463-1.814 4.212-4.406 4.212h-5.443V7.84h2.657v4.018h3.045c2.592 0 4.147 1.684 4.147 4.146z" fill="#000"/></svg>