<svg width="55" height="20" fill="none" xmlns="http://www.w3.org/2000/svg"><path d="M10.543 4.043a2.384 2.384 0 00-.875-.944 4.1 4.1 0 00-1.393-.51c-.541-.099-1.166-.143-1.891-.15l-3.346.002a.838.838 0 00-.77.612l-2.25 9.804c-.083.331.136.61.483.61h1.603a.82.82 0 00.769-.61l.55-2.38a.82.82 0 01.767-.608h.459c1.959-.003 3.476-.403 4.566-1.205 1.096-.803 1.636-1.863 1.636-3.177-.001-.576-.096-1.059-.308-1.444zM7.088 7.246c-.485.355-1.158.533-2.026.533H4.67c-.35 0-.563-.276-.487-.612l.482-2.082c.068-.333.419-.61.763-.608l.525-.003c.613 0 1.08.106 1.394.311.309.203.464.527.462.955.009.651-.24 1.152-.721 1.506zM18.27 5.445c-.605-.34-1.56-.511-2.864-.511-.646 0-1.289.05-1.939.15-.48.074-.526.088-.821.152-.61.133-.705.741-.705.741l-.196.806c-.11.515.186.495.31.452.265-.08.414-.161.957-.282.52-.118 1.067-.207 1.5-.201.642 0 1.132.068 1.458.205.322.14.483.38.483.728l-.027.227-.231.142a26.58 26.58 0 00-2.364.257c-.78.108-1.463.299-2.031.559-.61.268-1.063.629-1.38 1.087-.305.461-.458 1.02-.458 1.676 0 .618.222 1.127.652 1.522.433.387 1.005.576 1.689.576.433-.002.768-.036 1.006-.093l.776-.267.657-.364.604-.4.008.012-.06.257-.004.01v.003c-.065.313.124.57.428.6l.006.007h1.488l.021-.01c.32-.037.62-.294.69-.6L19.09 7.83l.06-.412.029-.386c.004-.717-.305-1.247-.91-1.587zm-2.584 5.685l-.25.33-.63.325a2.25 2.25 0 01-.838.18c-.395 0-.704-.056-.913-.173l-.309-.601c0-.326.075-.584.235-.782l.679-.462a5.93 5.93 0 011.056-.238 32.65 32.65 0 011.184-.13l.111.194c-.022.11-.227.97-.325 1.357zM47.37 5.452c-.608-.341-1.561-.513-2.863-.513-.645 0-1.29.05-1.937.154-.48.07-.528.086-.825.149-.608.132-.702.742-.702.742l-.196.805c-.11.515.18.491.315.452.267-.08.41-.158.95-.284.517-.117 1.069-.203 1.504-.2.638 0 1.128.068 1.454.206.324.14.483.383.483.727l-.025.225-.228.146a25.4 25.4 0 00-2.366.254c-.777.109-1.463.298-2.032.56-.608.269-1.067.63-1.38 1.09-.309.46-.46 1.018-.46 1.668 0 .622.22 1.132.656 1.524.436.386 1.001.58 1.685.58.43-.005.766-.033 1.005-.095l.774-.263.663-.364.6-.404.01.013-.055.259-.006.004.003.005c-.073.313.117.572.425.6l.003.006h1.486l.025-.008c.316-.039.615-.296.681-.605l1.172-5.05.062-.413.034-.388c0-.714-.305-1.243-.915-1.582zm-2.578 5.685l-.26.333-.624.323a2.27 2.27 0 01-.835.18c-.407 0-.708-.058-.911-.174l-.313-.599c0-.327.076-.582.229-.784.155-.19.392-.347.686-.461a5.952 5.952 0 011.055-.237c.364-.046 1.085-.13 1.178-.132l.114.195c-.017.11-.223.966-.319 1.356zM39.64 4.08a2.48 2.48 0 00-.883-.948 3.933 3.933 0 00-1.392-.511 11.013 11.013 0 00-1.885-.147l-3.35.002a.832.832 0 00-.764.61l-2.253 9.809c-.082.332.142.607.483.607L31.2 13.5a.83.83 0 00.77-.607l.543-2.381c.08-.332.424-.61.77-.608h.459c1.961 0 3.482-.404 4.576-1.203 1.082-.81 1.63-1.867 1.63-3.183-.006-.573-.106-1.057-.309-1.438zm-3.456 3.207c-.483.348-1.157.526-2.021.526h-.4a.48.48 0 01-.49-.61l.486-2.079a.815.815 0 01.766-.608l.519-.004c.616.004 1.078.106 1.393.31.314.206.462.528.466.955.003.652-.238 1.153-.719 1.51zm17.194-4.124c.073-.334-.137-.606-.48-.602h-1.436c-.294 0-.56.219-.689.487l-.079.124-.072.317-2.006 9.118-.066.28.003.008c-.067.3.117.526.402.569l.025.034h1.49c.292 0 .566-.222.69-.495l.078-.117 2.145-9.721-.005-.002zM29.156 5.056c-.379.005-1.92 0-1.92 0-.346 0-.79.28-1.009.612 0 0-2.294 3.937-2.517 4.333l-.266-.004-.714-4.302c-.08-.339-.433-.628-.873-.628l-1.435.002c-.345 0-.558.276-.48.612 0 0 1.09 6.202 1.308 7.662.102.805-.012.948-.012.948l-1.42 2.472c-.21.336-.096.61.248.61l1.66-.002c.345 0 .799-.272 1.004-.61l6.383-10.796c0 .001.614-.922.043-.909z" fill="#858FA4"/></svg>