<svg width="19" height="23" fill="none" xmlns="http://www.w3.org/2000/svg"><path d="M12.885 10.412a5.754 5.754 0 002.373-4.654A5.764 5.764 0 009.5 0a5.764 5.764 0 00-5.758 5.758c0 1.91.936 3.606 2.373 4.654C2.543 11.779 0 15.242 0 19.288a3.17 3.17 0 003.167 3.167h12.666A3.17 3.17 0 0019 19.288c0-4.046-2.543-7.51-6.115-8.876zM5.47 5.758a4.035 4.035 0 014.03-4.03 4.035 4.035 0 014.03 4.03 4.035 4.035 0 01-4.03 4.03 4.035 4.035 0 01-4.03-4.03zm10.363 14.97H3.167c-.794 0-1.44-.646-1.44-1.44 0-4.286 3.487-7.773 7.773-7.773s7.773 3.487 7.773 7.773c0 .794-.646 1.44-1.44 1.44z" fill="#fff"/></svg>