<svg width="30" height="32" fill="none" xmlns="http://www.w3.org/2000/svg"><path d="M22.146 15.752l-2.341 2.116 2.114 2.34 2.342-2.115-2.115-2.34zm-4.666 1.904l-3.123 2.811 2.813 3.125 3.123-2.812-2.813-3.124zm8.89-2.648l-1.56 1.406 1.407 1.56 1.56-1.406-1.407-1.56zM17.985 6.1L15.64 8.21l2.11 2.345 2.344-2.11-2.11-2.345zm6.388 4.246l-1.557 1.407 1.408 1.558 1.557-1.406-1.408-1.559zm-9.108 1.897l-3.126 2.814 2.812 3.124 3.126-2.814-2.812-3.124zM13.03 6.919L9.907 9.731l2.813 3.125 3.124-2.813-2.812-3.124zm7.107 3.895l-2.338 2.11 2.114 2.343 2.339-2.11-2.115-2.343zm2.232-5.101l-1.56 1.406 1.405 1.56 1.56-1.406-1.405-1.56zm1.841 14.775L21.867 22.6l2.113 2.345 2.343-2.111-2.113-2.345z" fill="#858FA4"/><path d="M20.1 23.144l-3.054 2.816-5.156-5.738 1.434-1.262-3.61-4.042 1.442-1.264-3.664-4.038 5.718-5.148 1.816 1.988 3.066-2.736 1.812 1.878 1.208-1.082c-.27-.156-.54-.3-.814-.43a13.078 13.078 0 00-5.758-1.332c-7.234 0-13.136 5.9-13.136 13.136 0 7.234 5.902 13.134 13.136 13.134 2.35 0 4.564-.622 6.474-1.712.63-.356 1.204-.742 1.728-1.148l-2.642-3.02z" fill="#858FA4"/></svg>