<svg width="36" height="25" viewBox="0 0 36 25" fill="none" xmlns="http://www.w3.org/2000/svg">
<path d="M1.49356 0.0611322H12.3463V11.3445C12.3463 16.1105 11.4419 19.5128 9.63311 21.5513C7.85303 23.5897 4.85273 24.6521 0.632227 24.7382L0.0723636 18.8381C2.39795 18.8381 3.97705 18.35 4.80967 17.3738C5.671 16.4264 6.10166 14.5889 6.10166 11.8613V11H1.49356V0.0611322ZM24.3635 0.0611322H35.2163V11.3445C35.2163 16.1105 34.3119 19.5128 32.5031 21.5513C30.723 23.5897 27.7227 24.6521 23.5022 24.7382L22.9423 18.8381C25.2679 18.8381 26.847 18.35 27.6797 17.3738C28.541 16.4264 28.9716 14.5889 28.9716 11.8613V11H24.3635V0.0611322Z" fill="#FE0000"/>
</svg>
