<svg width="173" height="59" viewBox="0 0 173 59" fill="none" xmlns="http://www.w3.org/2000/svg">
<path d="M0.864806 25.8711V22.0108L1.59174 21.9732C2.57771 21.9147 3.35896 21.5596 3.9355 20.9079C4.52039 20.2561 4.9507 19.2075 5.22644 17.762C5.51053 16.3164 5.69853 14.3779 5.79044 11.9465L6.21658 0.202642H23.0364V25.8711H18.4868V4.02534H10.5531L10.1521 13.3878C10.0351 16.1953 9.72594 18.5223 9.2246 20.3689C8.73162 22.2155 7.92112 23.5942 6.79312 24.505C5.67346 25.4157 4.11514 25.8711 2.11815 25.8711H0.864806ZM38.0703 14.5033V18.2382H27.7051V14.5033H38.0703ZM31.3022 6.61975V25.8711H26.7526V6.61975H31.3022ZM43.8858 26.2471C42.0308 26.2471 40.4224 25.8251 39.0604 24.9812C37.7068 24.1373 36.6582 22.9675 35.9145 21.4719C35.1709 19.9762 34.7991 18.2466 34.7991 16.283C34.7991 14.3195 35.1709 12.594 35.9145 11.1067C36.6582 9.61942 37.7068 8.45799 39.0604 7.62243C40.4224 6.78687 42.0308 6.36909 43.8858 6.36909C45.7324 6.36909 47.3325 6.78687 48.6861 7.62243C50.048 8.45799 51.1009 9.61942 51.8445 11.1067C52.5965 12.594 52.9725 14.3195 52.9725 16.283C52.9725 18.2466 52.5965 19.9762 51.8445 21.4719C51.1009 22.9675 50.048 24.1373 48.6861 24.9812C47.3325 25.8251 45.7324 26.2471 43.8858 26.2471ZM43.8858 22.4871C44.9804 22.4871 45.8744 22.2113 46.5679 21.6599C47.2615 21.1084 47.7711 20.3647 48.097 19.4289C48.4229 18.4931 48.5858 17.4445 48.5858 16.283C48.5858 15.1216 48.4229 14.073 48.097 13.1371C47.7711 12.2013 47.2615 11.4618 46.5679 10.9187C45.8744 10.3672 44.9804 10.0915 43.8858 10.0915C42.7828 10.0915 41.8804 10.3672 41.1786 10.9187C40.485 11.4618 39.9754 12.2013 39.6495 13.1371C39.3236 14.073 39.1607 15.1216 39.1607 16.283C39.1607 17.4528 39.3236 18.5056 39.6495 19.4414C39.9754 20.3773 40.485 21.1209 41.1786 21.6724C41.8804 22.2155 42.7828 22.4871 43.8858 22.4871ZM56.9957 25.8711V6.61975H61.5328V14.3905H63.1873L68.9777 6.61975H74.4423L67.3108 16.07L74.5175 25.8711H69.0278L63.7513 18.6142H61.5328V25.8711H56.9957ZM81.4641 19.7297L89.1722 6.61975H93.8346V25.8711H89.4479V12.7486L81.7649 25.8711H77.09V6.61975H81.4641V19.7297ZM1.00267 51.8711L0.977607 48.1361H1.64188C2.14322 48.1361 2.56517 48.0233 2.90775 47.7977C3.25033 47.5721 3.53443 47.1961 3.76003 46.6697C3.98563 46.135 4.1611 45.4164 4.28643 44.514C4.41177 43.6116 4.4995 42.4877 4.54963 41.1425L4.88804 32.6198H18.9255V51.8711H14.5388V36.3422H9.01153L8.71073 42.5462C8.63553 44.1505 8.45588 45.5417 8.17179 46.7199C7.89606 47.8896 7.50334 48.8547 6.99365 49.6151C6.49231 50.3754 5.86146 50.9436 5.1011 51.3196C4.34074 51.6873 3.44251 51.8711 2.40642 51.8711H1.00267ZM32.0166 52.2471C30.0865 52.2471 28.4195 51.846 27.0158 51.0439C25.6204 50.2334 24.5467 49.0887 23.7947 47.6097C23.0427 46.1224 22.6667 44.3719 22.6667 42.3582C22.6667 40.3779 23.0427 38.64 23.7947 37.1443C24.5551 35.6403 25.6162 34.4705 26.9782 33.635C28.3402 32.791 29.9403 32.3691 31.7785 32.3691C32.965 32.3691 34.0846 32.5613 35.1375 32.9456C36.1986 33.3216 37.1344 33.9065 37.9449 34.7003C38.7638 35.4941 39.4072 36.5051 39.8751 37.7334C40.343 38.9533 40.577 40.4072 40.577 42.095V43.4862H24.7974V40.4281H36.2279C36.2195 39.5591 36.0315 38.7862 35.6639 38.1094C35.2962 37.4242 34.7823 36.8853 34.1222 36.4926C33.4705 36.0999 32.7101 35.9035 31.8412 35.9035C30.9137 35.9035 30.099 36.1291 29.3971 36.5803C28.6953 37.0232 28.148 37.6081 27.7553 38.335C27.3709 39.0536 27.1746 39.8432 27.1662 40.7038V43.3734C27.1662 44.4931 27.3709 45.454 27.7803 46.2561C28.1898 47.0499 28.7621 47.6599 29.4974 48.086C30.2327 48.5038 31.0933 48.7127 32.0793 48.7127C32.7394 48.7127 33.3368 48.6208 33.8716 48.4369C34.4063 48.2448 34.8701 47.9648 35.2628 47.5972C35.6555 47.2295 35.9521 46.7742 36.1527 46.2311L40.389 46.7073C40.1216 47.827 39.6119 48.8046 38.8599 49.6401C38.1162 50.4674 37.1637 51.1107 36.0023 51.5703C34.8408 52.0215 33.5123 52.2471 32.0166 52.2471ZM52.8127 52.2471C50.8909 52.2471 49.2407 51.8251 47.862 50.9812C46.4917 50.1373 45.4347 48.9717 44.6911 47.4844C43.9558 45.9887 43.5881 44.2675 43.5881 42.3206C43.5881 40.3654 43.9641 38.64 44.7161 37.1443C45.4681 35.6403 46.5293 34.4705 47.8996 33.635C49.2783 32.791 50.9076 32.3691 52.7876 32.3691C54.3501 32.3691 55.733 32.6574 56.9362 33.2339C58.1478 33.8021 59.1128 34.6084 59.8314 35.6528C60.55 36.6889 60.9594 37.9005 61.0597 39.2875H56.7231C56.5477 38.3601 56.1299 37.5872 55.4698 36.9689C54.8181 36.3422 53.9449 36.0288 52.8503 36.0288C51.9228 36.0288 51.1082 36.2795 50.4063 36.7809C49.7044 37.2738 49.1571 37.9841 48.7644 38.9115C48.3801 39.839 48.1879 40.9503 48.1879 42.2454C48.1879 43.5573 48.3801 44.6853 48.7644 45.6294C49.1488 46.5653 49.6877 47.288 50.3812 47.7977C51.0831 48.2991 51.9061 48.5497 52.8503 48.5497C53.5188 48.5497 54.1162 48.4244 54.6426 48.1737C55.1774 47.9147 55.6244 47.5429 55.9837 47.0583C56.343 46.5736 56.5895 45.9846 56.7231 45.291H61.0597C60.9511 46.653 60.55 47.8604 59.8565 48.9132C59.163 49.9577 58.2188 50.7765 57.0239 51.3698C55.8291 51.9546 54.4253 52.2471 52.8127 52.2471ZM63.3878 36.3422V32.6198H80.2327V36.3422H74.0036V51.8711H69.6169V36.3422H63.3878ZM97.0682 40.3654V44.0878H86.8159V40.3654H97.0682ZM88.2196 32.6198V51.8711H83.8455V32.6198H88.2196ZM100.039 32.6198V51.8711H95.677V32.6198H100.039ZM109.003 45.7297L116.711 32.6198H121.374V51.8711H116.987V38.7486L109.304 51.8711H104.629V32.6198H109.003V45.7297ZM142.289 32.6198V48.4871H145.234V58.0626H140.797V51.8711H126.033V32.6198H130.407V48.1487H137.952V32.6198H142.289ZM152.024 38.8865H157.702C160.158 38.8865 162.059 39.4839 163.405 40.6787C164.75 41.8736 165.427 43.4403 165.435 45.3788C165.427 46.6405 165.117 47.7601 164.507 48.7377C163.906 49.7153 163.029 50.4841 161.875 51.0439C160.731 51.5954 159.34 51.8711 157.702 51.8711H148.953V32.6198H153.328V48.1487H157.702C158.688 48.1487 159.498 47.898 160.133 47.3967C160.768 46.887 161.086 46.2352 161.086 45.4414C161.086 44.6059 160.768 43.9249 160.133 43.3985C159.498 42.8721 158.688 42.6089 157.702 42.6089H152.024V38.8865ZM167.829 51.8711V32.6198H172.366V51.8711H167.829Z" fill="white"/>
</svg>
