<svg width="122" height="38" viewBox="0 0 122 38" fill="none" xmlns="http://www.w3.org/2000/svg">
<path d="M12.936 17C12.76 17 12.616 16.944 12.504 16.832C12.392 16.72 12.336 16.576 12.336 16.4V4.04H7.872V6.224C7.872 8.16 7.776 9.808 7.584 11.168C7.408 12.512 7.08 13.616 6.6 14.48C6.136 15.328 5.472 15.952 4.608 16.352C3.76 16.752 2.664 16.968 1.32 17C1.16 17 1.016 16.944 0.888 16.832C0.76 16.704 0.696 16.552 0.696 16.376V13.856C0.696 13.504 0.896 13.304 1.296 13.256C1.744 13.176 2.12 12.944 2.424 12.56C2.728 12.176 2.976 11.664 3.168 11.024C3.36 10.368 3.496 9.592 3.576 8.696C3.656 7.784 3.696 6.776 3.696 5.672V0.8C3.696 0.623999 3.752 0.479999 3.864 0.368C3.992 0.255999 4.144 0.199999 4.32 0.199999H16.032C16.208 0.199999 16.352 0.255999 16.464 0.368C16.576 0.479999 16.632 0.623999 16.632 0.8V16.4C16.632 16.576 16.576 16.72 16.464 16.832C16.352 16.944 16.208 17 16.032 17H12.936ZM27.7847 12.248H23.7527V16.4C23.7527 16.576 23.6887 16.72 23.5607 16.832C23.4487 16.944 23.3127 17 23.1527 17H20.3207C20.1447 17 20.0007 16.944 19.8887 16.832C19.7767 16.72 19.7207 16.576 19.7207 16.4V5.12C19.7207 4.944 19.7767 4.8 19.8887 4.688C20.0007 4.576 20.1447 4.52 20.3207 4.52H23.1527C23.3127 4.52 23.4487 4.576 23.5607 4.688C23.6887 4.8 23.7527 4.944 23.7527 5.12V9.104H27.7847V12.248ZM31.8887 17.24C30.5447 17.24 29.4087 17.024 28.4807 16.592C27.5687 16.16 26.8647 15.544 26.3687 14.744C25.8887 13.928 25.6167 12.96 25.5527 11.84C25.5367 11.52 25.5287 11.16 25.5287 10.76C25.5287 10.344 25.5367 9.984 25.5527 9.68C25.6167 8.544 25.9047 7.576 26.4167 6.776C26.9287 5.976 27.6487 5.36 28.5767 4.928C29.5047 4.496 30.6087 4.28 31.8887 4.28C33.2007 4.28 34.3127 4.496 35.2247 4.928C36.1527 5.36 36.8727 5.976 37.3847 6.776C37.8967 7.576 38.1847 8.544 38.2487 9.68C38.2807 9.984 38.2967 10.344 38.2967 10.76C38.2967 11.16 38.2807 11.52 38.2487 11.84C38.1847 12.96 37.9047 13.928 37.4087 14.744C36.9287 15.544 36.2247 16.16 35.2967 16.592C34.3847 17.024 33.2487 17.24 31.8887 17.24ZM31.8887 14.312C32.6087 14.312 33.1367 14.096 33.4727 13.664C33.8087 13.232 33.9927 12.584 34.0247 11.72C34.0407 11.48 34.0487 11.16 34.0487 10.76C34.0487 10.36 34.0407 10.04 34.0247 9.8C33.9927 8.952 33.8087 8.312 33.4727 7.88C33.1367 7.432 32.6087 7.208 31.8887 7.208C31.2007 7.208 30.6807 7.432 30.3287 7.88C29.9927 8.312 29.8087 8.952 29.7767 9.8C29.7607 10.04 29.7527 10.36 29.7527 10.76C29.7527 11.16 29.7607 11.48 29.7767 11.72C29.8087 12.584 29.9927 13.232 30.3287 13.664C30.6807 14.096 31.2007 14.312 31.8887 14.312ZM41.2504 17C41.0744 17 40.9304 16.944 40.8184 16.832C40.7064 16.72 40.6504 16.576 40.6504 16.4V5.12C40.6504 4.944 40.7064 4.8 40.8184 4.688C40.9304 4.576 41.0744 4.52 41.2504 4.52H44.0104C44.1864 4.52 44.3304 4.576 44.4424 4.688C44.5544 4.8 44.6104 4.944 44.6104 5.12V9.104H45.9064L48.5224 4.904C48.5704 4.824 48.6504 4.744 48.7624 4.664C48.8744 4.568 49.0184 4.52 49.1944 4.52H52.2664C52.4104 4.52 52.5304 4.568 52.6264 4.664C52.7384 4.744 52.7944 4.856 52.7944 5C52.7944 5.048 52.7784 5.104 52.7464 5.168C52.7304 5.232 52.7064 5.288 52.6744 5.336L49.3864 10.568L53.2264 16.208C53.2904 16.304 53.3224 16.408 53.3224 16.52C53.3224 16.664 53.2744 16.784 53.1784 16.88C53.0824 16.96 52.9544 17 52.7944 17H49.4104C49.2344 17 49.0904 16.968 48.9784 16.904C48.8824 16.824 48.7944 16.728 48.7144 16.616L45.8584 12.248H44.6104V16.4C44.6104 16.576 44.5544 16.72 44.4424 16.832C44.3304 16.944 44.1864 17 44.0104 17H41.2504ZM55.7811 17C55.6211 17 55.4851 16.944 55.3731 16.832C55.2611 16.72 55.2051 16.584 55.2051 16.424V5.12C55.2051 4.944 55.2611 4.8 55.3731 4.688C55.4851 4.576 55.6291 4.52 55.8051 4.52H58.6371C58.7971 4.52 58.9331 4.576 59.0451 4.688C59.1731 4.8 59.2371 4.944 59.2371 5.12V13.88L58.1571 13.352L64.0851 4.904C64.1651 4.792 64.2611 4.704 64.3731 4.64C64.4851 4.56 64.6131 4.52 64.7571 4.52H67.3251C67.4851 4.52 67.6211 4.576 67.7331 4.688C67.8451 4.8 67.9011 4.936 67.9011 5.096V16.4C67.9011 16.576 67.8451 16.72 67.7331 16.832C67.6211 16.944 67.4771 17 67.3011 17H64.4691C64.2931 17 64.1491 16.944 64.0371 16.832C63.9251 16.72 63.8691 16.576 63.8691 16.4V7.904L64.9731 8.12L58.9971 16.616C58.9331 16.728 58.8451 16.824 58.7331 16.904C58.6211 16.968 58.4851 17 58.3251 17H55.7811ZM1.2 35C1.04 35 0.896 34.944 0.768 34.832C0.656 34.704 0.6 34.56 0.6 34.4V32.288C0.6 31.936 0.792 31.736 1.176 31.688C1.64 31.64 1.992 31.424 2.232 31.04C2.472 30.656 2.64 30.088 2.736 29.336C2.832 28.584 2.88 27.64 2.88 26.504V23.12C2.88 22.944 2.936 22.8 3.048 22.688C3.176 22.576 3.32 22.52 3.48 22.52H12.888C13.064 22.52 13.208 22.576 13.32 22.688C13.432 22.8 13.488 22.944 13.488 23.12V34.4C13.488 34.576 13.432 34.72 13.32 34.832C13.208 34.944 13.064 35 12.888 35H10.056C9.896 35 9.752 34.944 9.624 34.832C9.512 34.72 9.456 34.576 9.456 34.4V25.664H6.72V26.936C6.72 28.472 6.64 29.76 6.48 30.8C6.32 31.84 6.032 32.664 5.616 33.272C5.2 33.88 4.632 34.32 3.912 34.592C3.192 34.864 2.288 35 1.2 35ZM22.176 35.24C20.288 35.24 18.784 34.728 17.664 33.704C16.544 32.68 15.96 31.16 15.912 29.144C15.912 29.032 15.912 28.888 15.912 28.712C15.912 28.536 15.912 28.4 15.912 28.304C15.96 27.04 16.24 25.96 16.752 25.064C17.28 24.152 18 23.464 18.912 23C19.84 22.52 20.92 22.28 22.152 22.28C23.56 22.28 24.72 22.56 25.632 23.12C26.56 23.68 27.256 24.44 27.72 25.4C28.184 26.36 28.416 27.456 28.416 28.688V29.264C28.416 29.44 28.352 29.584 28.224 29.696C28.112 29.808 27.976 29.864 27.816 29.864H20.136C20.136 29.88 20.136 29.904 20.136 29.936C20.136 29.968 20.136 30 20.136 30.032C20.152 30.496 20.232 30.92 20.376 31.304C20.52 31.688 20.744 31.992 21.048 32.216C21.352 32.44 21.72 32.552 22.152 32.552C22.472 32.552 22.736 32.504 22.944 32.408C23.168 32.296 23.352 32.176 23.496 32.048C23.64 31.904 23.752 31.784 23.832 31.688C23.976 31.528 24.088 31.432 24.168 31.4C24.264 31.352 24.408 31.328 24.6 31.328H27.576C27.736 31.328 27.864 31.376 27.96 31.472C28.072 31.552 28.12 31.672 28.104 31.832C28.088 32.104 27.952 32.432 27.696 32.816C27.44 33.2 27.064 33.584 26.568 33.968C26.088 34.336 25.48 34.64 24.744 34.88C24.008 35.12 23.152 35.24 22.176 35.24ZM20.136 27.488H24.192V27.44C24.192 26.928 24.112 26.48 23.952 26.096C23.808 25.712 23.576 25.416 23.256 25.208C22.952 25 22.584 24.896 22.152 24.896C21.72 24.896 21.352 25 21.048 25.208C20.76 25.416 20.536 25.712 20.376 26.096C20.216 26.48 20.136 26.928 20.136 27.44V27.488ZM36.402 35.24C35.218 35.24 34.17 35.024 33.258 34.592C32.346 34.16 31.618 33.536 31.074 32.72C30.546 31.888 30.258 30.896 30.21 29.744C30.194 29.488 30.186 29.168 30.186 28.784C30.186 28.384 30.194 28.056 30.21 27.8C30.258 26.632 30.546 25.64 31.074 24.824C31.602 23.992 32.322 23.36 33.234 22.928C34.162 22.496 35.218 22.28 36.402 22.28C37.506 22.28 38.45 22.44 39.234 22.76C40.018 23.064 40.658 23.448 41.154 23.912C41.65 24.376 42.018 24.856 42.258 25.352C42.514 25.832 42.65 26.256 42.666 26.624C42.682 26.784 42.626 26.928 42.498 27.056C42.37 27.168 42.226 27.224 42.066 27.224H39.018C38.842 27.224 38.706 27.184 38.61 27.104C38.514 27.024 38.426 26.904 38.346 26.744C38.154 26.248 37.906 25.896 37.602 25.688C37.314 25.48 36.938 25.376 36.474 25.376C35.834 25.376 35.338 25.584 34.986 26C34.65 26.416 34.466 27.056 34.434 27.92C34.418 28.56 34.418 29.128 34.434 29.624C34.466 30.504 34.65 31.144 34.986 31.544C35.338 31.944 35.834 32.144 36.474 32.144C36.97 32.144 37.362 32.04 37.65 31.832C37.938 31.624 38.17 31.272 38.346 30.776C38.426 30.616 38.514 30.496 38.61 30.416C38.706 30.336 38.842 30.296 39.018 30.296H42.066C42.226 30.296 42.37 30.36 42.498 30.488C42.626 30.6 42.682 30.736 42.666 30.896C42.65 31.168 42.57 31.488 42.426 31.856C42.282 32.208 42.058 32.584 41.754 32.984C41.45 33.384 41.05 33.76 40.554 34.112C40.074 34.448 39.49 34.72 38.802 34.928C38.114 35.136 37.314 35.24 36.402 35.24ZM48.5903 35C48.4303 35 48.2863 34.944 48.1583 34.832C48.0463 34.72 47.9903 34.576 47.9903 34.4V25.664H44.3423C44.1823 25.664 44.0383 25.608 43.9103 25.496C43.7983 25.384 43.7423 25.24 43.7423 25.064V23.12C43.7423 22.944 43.7983 22.8 43.9103 22.688C44.0383 22.576 44.1823 22.52 44.3423 22.52H55.6223C55.7823 22.52 55.9183 22.576 56.0303 22.688C56.1583 22.8 56.2223 22.944 56.2223 23.12V25.064C56.2223 25.24 56.1583 25.384 56.0303 25.496C55.9183 25.608 55.7823 25.664 55.6223 25.664H51.9743V34.4C51.9743 34.576 51.9183 34.72 51.8063 34.832C51.6943 34.944 51.5503 35 51.3743 35H48.5903ZM58.5707 35C58.3947 35 58.2507 34.944 58.1387 34.832C58.0267 34.72 57.9707 34.576 57.9707 34.4V23.12C57.9707 22.944 58.0267 22.8 58.1387 22.688C58.2507 22.576 58.3947 22.52 58.5707 22.52H61.4027C61.5627 22.52 61.6987 22.576 61.8107 22.688C61.9387 22.8 62.0027 22.944 62.0027 23.12V27.104H66.3227V23.12C66.3227 22.944 66.3787 22.8 66.4907 22.688C66.6027 22.576 66.7467 22.52 66.9227 22.52H69.7547C69.9147 22.52 70.0507 22.576 70.1627 22.688C70.2907 22.8 70.3547 22.944 70.3547 23.12V34.4C70.3547 34.576 70.2907 34.72 70.1627 34.832C70.0507 34.944 69.9147 35 69.7547 35H66.9227C66.7467 35 66.6027 34.944 66.4907 34.832C66.3787 34.72 66.3227 34.576 66.3227 34.4V30.248H62.0027V34.4C62.0027 34.576 61.9387 34.72 61.8107 34.832C61.6987 34.944 61.5627 35 61.4027 35H58.5707ZM73.8514 35C73.6914 35 73.5554 34.944 73.4434 34.832C73.3314 34.72 73.2754 34.584 73.2754 34.424V23.12C73.2754 22.944 73.3314 22.8 73.4434 22.688C73.5554 22.576 73.6994 22.52 73.8754 22.52H76.7074C76.8674 22.52 77.0034 22.576 77.1154 22.688C77.2434 22.8 77.3074 22.944 77.3074 23.12V31.88L76.2274 31.352L82.1554 22.904C82.2354 22.792 82.3314 22.704 82.4434 22.64C82.5554 22.56 82.6834 22.52 82.8274 22.52H85.3954C85.5554 22.52 85.6914 22.576 85.8034 22.688C85.9154 22.8 85.9714 22.936 85.9714 23.096V34.4C85.9714 34.576 85.9154 34.72 85.8034 34.832C85.6914 34.944 85.5474 35 85.3714 35H82.5394C82.3634 35 82.2194 34.944 82.1074 34.832C81.9954 34.72 81.9394 34.576 81.9394 34.4V25.904L83.0434 26.12L77.0674 34.616C77.0034 34.728 76.9154 34.824 76.8034 34.904C76.6914 34.968 76.5554 35 76.3954 35H73.8514ZM98.9721 37.832C98.7961 37.832 98.6521 37.768 98.5401 37.64C98.4281 37.528 98.3721 37.384 98.3721 37.208V35H89.1801C89.0041 35 88.8601 34.944 88.7481 34.832C88.6361 34.72 88.5801 34.576 88.5801 34.4V23.12C88.5801 22.944 88.6361 22.8 88.7481 22.688C88.8601 22.576 89.0041 22.52 89.1801 22.52H92.0121C92.1721 22.52 92.3081 22.576 92.4201 22.688C92.5481 22.8 92.6121 22.944 92.6121 23.12V31.856H96.7401V23.12C96.7401 22.944 96.7961 22.8 96.9081 22.688C97.0361 22.576 97.1801 22.52 97.3401 22.52H100.172C100.348 22.52 100.492 22.576 100.604 22.688C100.716 22.8 100.772 22.944 100.772 23.12V31.856H101.804C101.98 31.856 102.124 31.912 102.236 32.024C102.348 32.136 102.404 32.28 102.404 32.456V37.208C102.404 37.384 102.348 37.528 102.236 37.64C102.124 37.768 101.98 37.832 101.804 37.832H98.9721ZM104.93 35C104.754 35 104.61 34.944 104.498 34.832C104.386 34.72 104.33 34.576 104.33 34.4V23.12C104.33 22.944 104.386 22.8 104.498 22.688C104.61 22.576 104.754 22.52 104.93 22.52H107.762C107.938 22.52 108.082 22.576 108.194 22.688C108.322 22.8 108.386 22.944 108.386 23.12V26.36H110.57C112.186 26.36 113.434 26.752 114.314 27.536C115.194 28.304 115.634 29.368 115.634 30.728C115.634 32.12 115.17 33.184 114.242 33.92C113.33 34.64 112.058 35 110.426 35H104.93ZM108.29 32.24H110.21C110.834 32.24 111.29 32.128 111.578 31.904C111.866 31.664 112.01 31.272 112.01 30.728C112.01 30.184 111.866 29.776 111.578 29.504C111.306 29.232 110.85 29.096 110.21 29.096H108.29V32.24ZM117.698 35C117.538 35 117.394 34.944 117.266 34.832C117.154 34.72 117.098 34.576 117.098 34.4V23.12C117.098 22.944 117.154 22.8 117.266 22.688C117.394 22.576 117.538 22.52 117.698 22.52H120.554C120.714 22.52 120.85 22.576 120.962 22.688C121.09 22.8 121.154 22.944 121.154 23.12V34.4C121.154 34.576 121.09 34.72 120.962 34.832C120.85 34.944 120.714 35 120.554 35H117.698Z" fill="black"/>
</svg>
