<svg width="40" height="40" viewBox="0 0 40 40" fill="none" xmlns="http://www.w3.org/2000/svg">
<g id="mastercard 1">
<path id="Vector" d="M40 20.0001C40 13.484 34.7097 8.12915 28.129 8.12915C25.2903 8.12915 22.7097 9.09689 20.6452 10.7743C22.1935 12.2582 23.4194 14.1292 24 16.2582H23.0323C22.3871 14.3872 21.3548 12.7098 19.9355 11.355C18.5161 12.7098 17.4839 14.3872 16.8387 16.2582H15.871C16.5161 14.1292 17.6774 12.2582 19.2258 10.7743C17.1613 9.09689 14.6452 8.12915 11.8065 8.12915C5.29032 8.12915 0 13.484 0 20.0001C0 26.5162 5.29032 31.8711 11.871 31.8711C14.7097 31.8711 17.2903 30.8388 19.2903 29.2259C17.7419 27.7421 16.5806 25.8711 15.9355 23.7421H16.9032C17.5484 25.613 18.5806 27.2904 20 28.6453C21.4194 27.2904 22.5161 25.613 23.0968 23.7421H24.0645C23.4194 25.8711 22.2581 27.7421 20.7097 29.2259C22.7742 30.9033 25.3548 31.8711 28.1935 31.8711C34.7097 31.8711 40 26.5162 40 20.0001Z" fill="#858FA4"/>
<g id="Group">
<path id="Vector_2" d="M31.29 22.7743L32.1287 18.3872H33.161L33.29 18.8388C33.4836 18.6453 33.8062 18.3872 34.4513 18.3872L34.1287 19.5485C33.8062 19.5485 33.29 19.484 32.9029 20.7743L32.5158 22.7743H31.29Z" fill="#1A1A25"/>
<path id="Vector_3" d="M15.4839 17.2903H16.6452L16.3871 18.4516H17.0323L16.8387 19.3548H16.2581L15.9355 21.0967C15.871 21.4193 15.9355 21.7419 16.5807 21.6129L16.4516 22.5806C16.1936 22.7742 15.871 22.7742 15.5484 22.7742C15.2903 22.7742 14.3871 22.5806 14.5807 21.4193L15.4839 17.2903Z" fill="#1A1A25"/>
<path id="Vector_4" d="M20.6457 20.8388C20.7747 20.1291 21.0973 18.3872 19.0328 18.3872C17.0973 18.3872 16.8392 20.3227 16.8392 20.5808C16.7747 20.8388 16.7747 22.7743 18.8392 22.7743C19.3553 22.7743 20.065 22.7098 20.3876 22.5808L20.5811 21.6775C20.3876 21.742 19.7424 21.8066 19.2263 21.8066C18.7747 21.8066 18.0005 21.8066 18.1295 20.8388H20.6457Z" fill="#1A1A25"/>
<path id="Vector_5" d="M14.3225 19.4193L14.5806 18.5161C13.9999 18.3225 13.5483 18.3225 13.4193 18.3225C13.2257 18.3225 11.8064 18.3225 11.6128 19.3548C11.4193 20.1935 11.7418 20.5161 11.9999 20.6451C12.4515 20.8386 12.7096 21.0322 12.9676 21.1612C13.2902 21.2903 13.2257 21.8064 12.8386 21.8064C12.6451 21.8064 11.8709 21.8709 11.2902 21.6773L11.0967 22.5806C11.6773 22.7096 12.0644 22.7096 12.516 22.7096C12.8386 22.7096 14.258 22.7741 14.4515 21.4838C14.5806 20.8386 14.258 20.5806 14.0644 20.387C13.8064 20.258 13.4838 19.9999 13.2257 19.9354C12.9676 19.8064 12.7741 19.4193 13.2257 19.2903C13.4193 19.3548 13.9999 19.3548 14.3225 19.4193Z" fill="#1A1A25"/>
<path id="Vector_6" d="M6.58061 22.7742L7.61287 17.4839H5.61287L4.19352 20.7097L3.93545 17.4839H2.06448L1.03223 22.7742H2.19352L2.96771 18.9678L3.29029 22.7742H4.38707L6.06448 19.0323L5.35481 22.7742H6.58061Z" fill="#1A1A25"/>
<path id="Vector_7" d="M7.93591 18.5161L7.74236 19.4838C8.06494 19.4838 8.83913 19.3548 9.22623 19.3548C9.61332 19.3548 10.1295 19.2903 9.9359 19.9354C9.61332 19.9354 7.48429 19.6129 7.16171 21.4838C7.03268 22.3871 7.80687 22.8387 8.38752 22.8387C8.96816 22.8387 9.16171 22.7096 9.35526 22.5806L9.48429 22.8387H10.5811L11.0327 20.4516C11.1617 19.8709 11.3553 18.4516 9.35526 18.4516C9.0972 18.387 8.7101 18.387 7.93591 18.5161Z" fill="#1A1A25"/>
<path id="Vector_8" d="M27.226 18.7097C26.9035 18.5161 26.7099 18.5161 26.3228 18.5161C25.9357 18.5161 25.0325 18.9032 24.9035 19.9355C24.7099 21.2258 25.5486 21.8065 26.7744 21.4194L27.097 22.5161C26.7099 22.7097 26.3228 22.7742 25.6777 22.7742C24.4519 22.7742 23.097 21.6774 23.6777 19.4194C24.1293 17.8065 25.5486 17.1613 26.3873 17.2258C27.3551 17.2903 27.7422 17.6129 28.0002 17.9355L27.226 18.7097Z" fill="#1A1A25"/>
<path id="Vector_9" d="M37.3547 18.9032C37.0966 18.7097 36.9676 18.3871 36.4515 18.3871C35.8063 18.3871 34.774 18.2581 34.1934 20.2581C33.8063 21.6129 34.5805 22.7742 35.4192 22.7742C35.8063 22.7742 36.1934 22.5807 36.4515 22.4516L36.5805 22.7742H37.8708L38.9031 17.2258H37.6773L37.3547 18.9032Z" fill="#1A1A25"/>
<path id="Vector_10" d="M28.0648 18.5161L27.8713 19.4838C28.1938 19.4838 28.968 19.3548 29.3551 19.3548C29.7422 19.3548 30.1938 19.2903 30.0648 19.9354C29.7422 19.9354 27.6132 19.6129 27.2906 21.4838C27.1616 22.3871 27.9358 22.8387 28.5164 22.8387C29.0971 22.8387 29.2906 22.7096 29.4842 22.5806L29.6132 22.8387H30.71L31.1616 20.4516C31.2906 19.8709 31.4842 18.4516 29.4842 18.4516C29.2906 18.387 28.839 18.387 28.0648 18.5161Z" fill="#1A1A25"/>
</g>
<g id="Group_2">
<path id="Vector_11" d="M18.1299 20H19.6137C19.6783 19.5484 19.5492 19.2258 19.0976 19.2258C18.5815 19.2258 18.2589 19.4839 18.1299 20Z" fill="#858FA4"/>
<path id="Vector_12" d="M9.74253 20.8387C9.54899 20.8387 9.09737 20.7096 8.71028 20.9677C8.32318 21.2257 8.19415 21.6774 8.64576 21.8064C9.03286 21.9354 9.54899 21.6774 9.67802 21.2903L9.74253 20.8387Z" fill="#858FA4"/>
<path id="Vector_13" d="M36.968 20.7097C37.0971 20.3226 37.0325 19.8065 36.9035 19.6129C36.5164 19.0968 35.6777 19.4839 35.4196 20.4516C35.2261 21.0968 35.6132 21.5484 36.0003 21.5484C36.4519 21.5484 36.71 21.2258 36.968 20.7097Z" fill="#858FA4"/>
<path id="Vector_14" d="M29.9359 20.8387C29.7423 20.8387 29.2907 20.7096 28.9036 20.9677C28.5165 21.2257 28.3875 21.6774 28.8391 21.8064C29.2262 21.9354 29.8068 21.6774 29.8714 21.2903L29.9359 20.8387Z" fill="#858FA4"/>
</g>
<path id="Vector_15" d="M20.6455 22.7743L21.4842 18.4517H22.5165L22.6455 18.9033C22.8391 18.7097 23.1616 18.4517 23.8068 18.4517L23.4842 19.613C23.2262 19.613 22.6455 19.5484 22.2584 20.8388L21.8713 22.8388H20.6455" fill="#1A1A25"/>
<g id="Group_3">
<path id="Vector_16" d="M11.8713 8.12915C6.64551 8.12915 2.1939 11.5485 0.645508 16.2582H16.0003C16.6455 14.1291 17.8068 12.2582 19.3552 10.7743C17.2262 9.16141 14.6455 8.12915 11.8713 8.12915Z" fill="#858FA4"/>
<path id="Vector_17" d="M20.0001 11.4194C18.5807 12.7743 17.5485 14.3872 16.9033 16.3227H23.0969C22.4517 14.4517 21.4195 12.7743 20.0001 11.4194Z" fill="#858FA4"/>
<path id="Vector_18" d="M28.1294 8.12915C25.2907 8.12915 22.71 9.09689 20.6455 10.7743C22.1939 12.2582 23.3552 14.1291 24.0003 16.2582H39.3552C37.8713 11.5485 33.4197 8.12915 28.1294 8.12915Z" fill="#858FA4"/>
</g>
</g>
</svg>
