<svg width="145" height="29" viewBox="0 0 145 29" fill="none" xmlns="http://www.w3.org/2000/svg">
<path d="M14.0606 0C6.28516 0 0 6.28516 0 14.0606C0 21.8361 6.28516 28.1212 14.0606 28.1212C21.8361 28.1212 28.1212 21.8361 28.1212 14.0606C28.1212 6.28516 21.8361 0 14.0606 0ZM12.1167 20.0218L11.08 23.0672C7.19229 21.7713 4.60047 18.0779 4.60047 13.931C4.60047 9.78411 7.19229 6.15556 11.1448 4.79486L12.1815 7.84025C9.58972 8.68259 7.90504 11.1448 7.90504 13.8662C7.77545 16.7172 9.52493 19.1794 12.1167 20.0218ZM16.9116 23.132L15.9397 20.0218C18.5963 19.1794 20.3458 16.7172 20.3458 13.931C20.3458 11.1448 18.5963 8.74738 16.0045 7.90504L17.0412 4.79486C20.9937 6.09077 23.6503 9.78411 23.6503 13.931C23.6503 18.2075 20.9289 21.9009 16.9116 23.132Z" fill="#00BEF0"/>
<path d="M142.809 16.5876L144.365 18.4667C142.745 20.1513 140.736 20.6049 139.116 20.6049C137.561 20.6049 136.46 20.3457 135.488 19.8922C133.414 18.8554 132.377 16.782 132.377 14.255C132.377 10.432 134.969 7.58103 138.792 7.58103C143.069 7.58103 145.142 10.756 144.818 14.9029H135.099C135.164 15.9396 135.747 16.9116 136.589 17.4299C137.302 17.8835 138.144 18.0779 139.246 18.0779C140.477 18.0779 141.708 17.6891 142.809 16.5876ZM135.164 12.6351H142.032C141.838 11.1448 140.606 9.84887 138.663 9.84887C136.654 9.84887 135.423 11.2744 135.164 12.6351ZM69.9146 20.2161H73.4136L67.906 13.8014L73.3488 7.77542H69.9146L65.7677 12.5703H64.5366V7.77542H61.88V20.1513H64.5366V15.2269H65.7677L69.9146 20.2161ZM81.3186 10.0433C79.0508 10.0433 77.5605 11.7927 77.5605 13.9958C77.5605 16.1988 79.0508 17.9483 81.3186 17.9483C83.5865 17.9483 85.012 16.2636 85.012 13.9958C85.0768 11.8575 83.6513 10.0433 81.3186 10.0433ZM81.7722 7.51624C85.2711 7.51624 87.863 10.2376 87.863 13.9958C87.863 17.6891 85.3359 20.5401 81.7722 20.5401C80.0875 20.5401 78.7268 19.957 77.7549 18.9202V25.3998H75.0335V7.84021H77.6901V9.33051C78.7268 8.09939 80.0875 7.51624 81.7722 7.51624ZM117.086 7.84021H106.006V10.3024H110.217V20.2161H112.939V10.3024H117.15V7.84021H117.086ZM60.0009 7.84021H48.8561V10.3024H53.0678V20.2161H55.7892V10.3024H60.0009V7.84021ZM45.6163 14.0606C45.6163 11.7279 43.9965 10.0433 41.7286 10.0433C39.5256 10.0433 37.8409 11.7279 37.8409 14.0606C37.8409 16.3932 39.4608 18.0779 41.7286 18.0779C43.9317 18.0779 45.6163 16.3932 45.6163 14.0606ZM35.0547 14.0606C35.0547 10.3672 37.9057 7.58103 41.7286 7.58103C45.4868 7.58103 48.4025 10.3672 48.4025 14.0606C48.4025 17.7539 45.5515 20.6049 41.7286 20.6049C37.9705 20.5401 35.0547 17.7539 35.0547 14.0606ZM130.239 7.84021V20.2161H127.583V12.2463L121.103 20.2161H118.965V7.84021H121.621V15.81L128.101 7.84021H130.239ZM104.127 20.2161H101.47V7.84021H104.127V20.2161ZM97.2583 16.0044C97.2583 14.9029 96.4808 14.1254 95.444 14.1254H92.7226V17.9483H95.444C96.4808 17.9483 97.2583 17.106 97.2583 16.0044ZM99.9149 16.0044C99.9149 18.4667 98.1006 20.2161 95.5088 20.2161H90.066V7.84021H92.7226V11.8575H95.768C98.3598 11.8575 99.9149 13.5422 99.9149 16.0044Z" fill="black"/>
</svg>
