<svg width="55" height="20" viewBox="0 0 55 20" fill="none" xmlns="http://www.w3.org/2000/svg">
<g id="paypal-logo 1">
<g id="Group">
<g id="Group_2">
<path id="Vector" d="M10.5428 4.04324C10.3503 3.65699 10.0457 3.33842 9.66761 3.0992C9.27319 2.85765 8.80759 2.68844 8.27547 2.58809C7.73402 2.49007 7.10855 2.44572 6.38389 2.43872L3.03831 2.44106C2.69057 2.44572 2.34983 2.71645 2.26814 3.05252L0.017144 12.857C-0.0645408 13.1884 0.153674 13.4662 0.501418 13.4662H2.10361C2.45135 13.4662 2.79559 13.1966 2.87261 12.857L3.42223 10.4765C3.49575 10.1451 3.83882 9.86853 4.19007 9.86853H4.64867C6.60794 9.8662 8.12494 9.46594 9.21485 8.66427C10.3106 7.86142 10.8509 6.80069 10.8509 5.48673C10.8497 4.91143 10.7552 4.42833 10.5428 4.04324ZM7.08754 7.24645C6.60327 7.6012 5.92995 7.77857 5.06176 7.77857H4.66967C4.32076 7.77857 4.10722 7.50318 4.18307 7.1671L4.66501 5.08531C4.73269 4.75157 5.08393 4.475 5.42818 4.47734L5.95329 4.47384C6.56593 4.47384 7.03386 4.58003 7.3466 4.78541C7.65584 4.98845 7.81104 5.31169 7.8087 5.73995C7.81804 6.3911 7.56948 6.89171 7.08754 7.24645Z" fill="#858FA4"/>
</g>
</g>
<g id="Group_3">
<g id="Group_4">
<path id="Vector_2" d="M18.2692 5.44495C17.6648 5.10421 16.7102 4.93384 15.4056 4.93384C14.7603 4.93384 14.1173 4.98402 13.4674 5.08437C12.9877 5.15789 12.9411 5.17189 12.6458 5.23607C12.0367 5.3691 11.941 5.97707 11.941 5.97707L11.745 6.78341C11.6341 7.29803 11.9305 7.27819 12.0542 7.23501C12.3203 7.15566 12.4685 7.07398 13.0123 6.95262C13.5315 6.83476 14.0788 6.74607 14.5129 6.75191C15.1536 6.75191 15.6437 6.81959 15.9704 6.95729C16.2925 7.09732 16.4535 7.3377 16.4535 7.68545L16.4255 7.91183L16.1945 8.0542C15.2854 8.11138 14.6284 8.19539 13.8314 8.31092C13.0519 8.41944 12.3681 8.60965 11.7998 8.86988C11.1895 9.13827 10.7368 9.49885 10.4205 9.95745C10.1148 10.4184 9.96191 10.9773 9.96191 11.6332C9.96191 12.2505 10.1836 12.7604 10.6142 13.1548C11.0472 13.5422 11.6189 13.7313 12.3028 13.7313C12.7357 13.729 13.0706 13.6951 13.3087 13.6379L14.0847 13.3707L14.7416 13.0066L15.3461 12.6075L15.3543 12.6192L15.2936 12.8759L15.2901 12.8864V12.8888C15.2247 13.2015 15.4138 13.4582 15.7184 13.4886L15.7242 13.4956H15.7522H16.981H17.212L17.233 13.4862C17.5528 13.4489 17.8527 13.1922 17.9227 12.8864L19.0908 7.83015L19.1514 7.41822L19.1795 7.03197C19.1841 6.31548 18.8749 5.78453 18.2692 5.44495ZM15.6857 11.1302L15.436 11.4593L14.8058 11.7849C14.5094 11.905 14.2282 11.9657 13.968 11.9657C13.5735 11.9657 13.2643 11.9085 13.0554 11.7919L12.7462 11.1909C12.7462 10.8653 12.8209 10.6074 12.9807 10.4091L13.6599 9.94695C13.9505 9.84893 14.3052 9.76607 14.716 9.7089C15.0824 9.66338 15.8059 9.58053 15.9004 9.5782L16.0112 9.77308C15.9891 9.88393 15.7837 10.7428 15.6857 11.1302Z" fill="#858FA4"/>
</g>
</g>
<g id="Group_5">
<g id="Group_6">
<path id="Vector_3" d="M47.3698 5.45173C46.7619 5.11099 45.8085 4.93945 44.5074 4.93945C43.8621 4.93945 43.2179 4.98963 42.5703 5.09349C42.0895 5.1635 42.0417 5.17867 41.7453 5.24169C41.1373 5.37355 41.0428 5.98385 41.0428 5.98385L40.8467 6.78903C40.737 7.30364 41.0264 7.2803 41.1618 7.24063C41.429 7.16128 41.5726 7.08309 42.1117 6.95707C42.6286 6.84037 43.1806 6.75402 43.6158 6.75636C44.2541 6.75636 44.7443 6.8252 45.0698 6.9629C45.3942 7.10293 45.5529 7.34565 45.5529 7.6899L45.5284 7.91511L45.2997 8.06098C44.3813 8.11582 43.7232 8.19984 42.9344 8.31537C42.1572 8.42389 41.471 8.61293 40.9016 8.87432C40.2936 9.14388 39.835 9.50446 39.5223 9.96423C39.213 10.4252 39.0625 10.983 39.0625 11.6329C39.0625 12.2549 39.2819 12.7649 39.7183 13.1569C40.1536 13.5432 40.7195 13.7369 41.4034 13.7369C41.8339 13.7322 42.1689 13.7042 42.4081 13.6424L43.1817 13.3787L43.8446 13.0146L44.4444 12.6108L44.4549 12.6237L44.4 12.8827L44.3942 12.8874L44.3965 12.892C44.3242 13.2048 44.5144 13.4638 44.8224 13.4918L44.8248 13.4977H44.8528C45.0547 13.4977 45.7525 13.4977 46.0851 13.4977H46.3114L46.3359 13.4895C46.6522 13.451 46.9509 13.1943 47.0174 12.885L48.189 7.83576L48.2509 7.4215L48.2847 7.03408C48.2859 6.31993 47.9801 5.79131 47.3698 5.45173ZM44.7921 11.137L44.5319 11.4696L43.9076 11.7928C43.6112 11.9118 43.3288 11.9737 43.0732 11.9737C42.666 11.9737 42.3649 11.9153 42.1619 11.7986L41.8491 11.2C41.8491 10.8733 41.925 10.6177 42.0778 10.4158C42.233 10.2256 42.4699 10.0693 42.764 9.9549C43.0511 9.85687 43.4058 9.77752 43.8189 9.71801C44.183 9.6725 44.9041 9.58731 44.9975 9.58615L45.1107 9.78102C45.0943 9.89188 44.8878 10.7472 44.7921 11.137Z" fill="#858FA4"/>
</g>
</g>
<g id="Group_7">
<g id="Group_8">
<path id="Vector_4" d="M39.6394 4.07957C39.4387 3.69098 39.1376 3.37708 38.7572 3.13202C38.3674 2.8893 37.9053 2.71893 37.365 2.62091C36.8341 2.52639 36.2005 2.47504 35.4805 2.47388L32.1302 2.47621C31.7813 2.48204 31.4464 2.75277 31.3659 3.08535L29.1126 12.8945C29.0309 13.2271 29.2549 13.5025 29.5957 13.5025L31.2002 13.5002C31.5409 13.5025 31.8898 13.2294 31.9704 12.8933L32.513 10.5117C32.5923 10.1802 32.9366 9.90135 33.2831 9.90369H33.7417C35.7033 9.90369 37.2239 9.49993 38.3184 8.70059C39.4002 7.89191 39.9475 6.83351 39.9475 5.51838C39.9416 4.94542 39.8424 4.46115 39.6394 4.07957ZM36.1841 7.28744C35.701 7.63519 35.0265 7.81256 34.163 7.81256H33.7639C33.4197 7.81606 33.1968 7.536 33.2738 7.20226L33.7592 5.12396C33.8304 4.79139 34.1782 4.5125 34.5248 4.516L35.044 4.51249C35.6602 4.516 36.1223 4.61752 36.4373 4.8229C36.7512 5.02827 36.8994 5.35035 36.9029 5.77744C36.9064 6.42859 36.6649 6.93036 36.1841 7.28744Z" fill="#858FA4"/>
</g>
</g>
<g id="Group_9">
<g id="Group_10">
<path id="Vector_5" d="M53.3779 3.16347C53.4514 2.82857 53.2414 2.55667 52.8971 2.56134H51.4618C51.1677 2.56134 50.9028 2.77955 50.7733 3.04795L50.694 3.17164L50.6216 3.48904L48.6157 12.6074L48.5503 12.8875L48.5527 12.8945C48.4861 13.1944 48.6705 13.4207 48.9553 13.4639L48.9798 13.4978H50.4699C50.7617 13.4978 51.0359 13.276 51.1607 13.003L51.2378 12.8863L53.3826 3.16464L53.3779 3.16347Z" fill="#858FA4"/>
</g>
</g>
<g id="Group_11">
<g id="Group_12">
<path id="Vector_6" d="M29.1564 5.05628C28.7771 5.06095 27.2356 5.05628 27.2356 5.05628C26.8902 5.05628 26.4468 5.33518 26.2274 5.66775C26.2274 5.66775 23.9332 9.60496 23.7104 10.0005L23.4443 9.99704L22.7301 5.69459C22.6508 5.35618 22.2972 5.06679 21.8573 5.06679L20.422 5.06912C20.0766 5.06912 19.8642 5.34452 19.9424 5.68059C19.9424 5.68059 21.0323 11.8828 21.2505 13.3426C21.352 14.1478 21.2376 14.2913 21.2376 14.2913L19.8187 16.7629C19.6086 17.0989 19.7218 17.3732 20.0661 17.3732L21.7254 17.3708C22.0708 17.3708 22.5248 17.0989 22.7301 16.7617L29.1132 5.96532C29.1132 5.96649 29.727 5.04345 29.1564 5.05628Z" fill="#858FA4"/>
</g>
</g>
</g>
</svg>
