<?xml version="1.0" encoding="utf-8"?><svg viewBox="0 0 36 25" xmlns="http://www.w3.org/2000/svg" xmlns:xlink="http://www.w3.org/1999/xlink"><style>:root>svg{display:none}:root>svg:target{display:block}</style><svg fill="none" viewBox="0 0 36 25" id="css--quote" xmlns="http://www.w3.org/2000/svg"><path d="M1.494.061h10.852v11.284c0 4.765-.904 8.168-2.713 10.206-1.78 2.039-4.78 3.101-9 3.187l-.56-5.9c2.325 0 3.904-.488 4.737-1.464.861-.948 1.292-2.785 1.292-5.513V11H1.494V.061Zm22.87 0h10.852v11.284c0 4.765-.904 8.168-2.713 10.206-1.78 2.039-4.78 3.101-9 3.187l-.56-5.9c2.325 0 3.904-.488 4.737-1.464.861-.948 1.292-2.785 1.292-5.513V11h-4.609V.061Z" fill="#FE0000"/></svg></svg>