<svg width="19" height="23" viewBox="0 0 19 23" fill="none" xmlns="http://www.w3.org/2000/svg">
<path d="M12.8852 10.4118C14.3219 9.36391 15.2576 7.66807 15.2576 5.75758C15.2576 2.58285 12.6747 0 9.5 0C6.32526 0 3.74242 2.58285 3.74242 5.75758C3.74242 7.66807 4.67801 9.36391 6.11484 10.4118C2.54316 11.7786 0 15.2415 0 19.2879C0 21.034 1.42056 22.4546 3.16667 22.4546H15.8333C17.5794 22.4546 19 21.034 19 19.2879C19 15.2415 16.4568 11.7786 12.8852 10.4118ZM5.46971 5.75758C5.46971 3.53528 7.2777 1.72729 9.5 1.72729C11.7223 1.72729 13.5303 3.53528 13.5303 5.75758C13.5303 7.97989 11.7223 9.78792 9.5 9.78792C7.2777 9.78792 5.46971 7.97989 5.46971 5.75758ZM15.8333 20.7273H3.16667C2.37299 20.7273 1.72729 20.0816 1.72729 19.2879C1.72729 15.0019 5.21407 11.5151 9.50004 11.5151C13.786 11.5151 17.2728 15.0019 17.2728 19.2879C17.2728 20.0816 16.6271 20.7273 15.8333 20.7273Z" fill="white"/>
</svg>
