<svg width="122" height="38" fill="none" xmlns="http://www.w3.org/2000/svg"><path d="M12.936 17a.585.585 0 01-.432-.168.585.585 0 01-.168-.432V4.04H7.872v2.184c0 1.936-.096 3.584-.288 4.944-.176 1.344-.504 2.448-.984 3.312a4.261 4.261 0 01-1.992 1.872c-.848.4-1.944.616-3.288.648a.639.639 0 01-.432-.168.623.623 0 01-.192-.456v-2.52c0-.352.2-.552.6-.6.448-.08.824-.312 1.128-.696.304-.384.552-.896.744-1.536.192-.656.328-1.432.408-2.328.08-.912.12-1.92.12-3.024V.8c0-.176.056-.32.168-.432A.67.67 0 014.32.2h11.712c.176 0 .32.056.432.168a.585.585 0 01.168.432v15.6c0 .176-.056.32-.168.432a.585.585 0 01-.432.168h-3.096zm14.849-4.752h-4.032V16.4c0 .176-.064.32-.192.432a.555.555 0 01-.408.168H20.32a.585.585 0 01-.432-.168.585.585 0 01-.168-.432V5.12c0-.176.056-.32.168-.432a.585.585 0 01.432-.168h2.832c.16 0 .296.056.408.168a.548.548 0 01.192.432v3.984h4.032v3.144zm4.104 4.992c-1.344 0-2.48-.216-3.408-.648-.912-.432-1.616-1.048-2.112-1.848-.48-.816-.752-1.784-.816-2.904-.016-.32-.024-.68-.024-1.08 0-.416.008-.776.024-1.08.064-1.136.352-2.104.864-2.904.512-.8 1.232-1.416 2.16-1.848.928-.432 2.032-.648 3.312-.648 1.312 0 2.424.216 3.336.648.928.432 1.648 1.048 2.16 1.848.512.8.8 1.768.864 2.904.032.304.048.664.048 1.08 0 .4-.016.76-.048 1.08-.064 1.12-.344 2.088-.84 2.904-.48.8-1.184 1.416-2.112 1.848-.912.432-2.048.648-3.408.648zm0-2.928c.72 0 1.248-.216 1.584-.648.336-.432.52-1.08.552-1.944.016-.24.024-.56.024-.96 0-.4-.008-.72-.024-.96-.032-.848-.216-1.488-.552-1.92-.336-.448-.864-.672-1.584-.672-.688 0-1.208.224-1.56.672-.336.432-.52 1.072-.552 1.92-.016.24-.024.56-.024.96 0 .4.008.72.024.96.032.864.216 1.512.552 1.944.352.432.872.648 1.56.648zM41.25 17a.585.585 0 01-.432-.168.585.585 0 01-.168-.432V5.12c0-.176.056-.32.168-.432a.585.585 0 01.432-.168h2.76c.176 0 .32.056.432.168a.585.585 0 01.168.432v3.984h1.296l2.616-4.2a.849.849 0 01.24-.24.64.64 0 01.432-.144h3.072c.144 0 .264.048.36.144a.39.39 0 01.168.336.387.387 0 01-.048.168.533.533 0 01-.072.168l-3.288 5.232 3.84 5.64c.064.096.096.2.096.312a.488.488 0 01-.144.36.58.58 0 01-.384.12H49.41a.864.864 0 01-.432-.096 1.528 1.528 0 01-.264-.288l-2.856-4.368H44.61V16.4c0 .176-.056.32-.168.432a.585.585 0 01-.432.168h-2.76zm14.531 0a.555.555 0 01-.408-.168.555.555 0 01-.168-.408V5.12c0-.176.056-.32.168-.432a.585.585 0 01.432-.168h2.832c.16 0 .296.056.408.168a.548.548 0 01.192.432v8.76l-1.08-.528 5.928-8.448c.08-.112.176-.2.288-.264.112-.08.24-.12.384-.12h2.568c.16 0 .296.056.408.168a.555.555 0 01.168.408V16.4c0 .176-.056.32-.168.432a.585.585 0 01-.432.168H64.47a.585.585 0 01-.432-.168.585.585 0 01-.168-.432V7.904l1.104.216-5.976 8.496a.903.903 0 01-.264.288.81.81 0 01-.408.096h-2.544zM1.2 35a.639.639 0 01-.432-.168A.639.639 0 01.6 34.4v-2.112c0-.352.192-.552.576-.6.464-.048.816-.264 1.056-.648.24-.384.408-.952.504-1.704.096-.752.144-1.696.144-2.832V23.12c0-.176.056-.32.168-.432a.639.639 0 01.432-.168h9.408c.176 0 .32.056.432.168a.585.585 0 01.168.432V34.4c0 .176-.056.32-.168.432a.585.585 0 01-.432.168h-2.832a.639.639 0 01-.432-.168.585.585 0 01-.168-.432v-8.736H6.72v1.272c0 1.536-.08 2.824-.24 3.864-.16 1.04-.448 1.864-.864 2.472a3.512 3.512 0 01-1.704 1.32c-.72.272-1.624.408-2.712.408zm20.976.24c-1.888 0-3.392-.512-4.512-1.536-1.12-1.024-1.704-2.544-1.752-4.56v-.84c.048-1.264.328-2.344.84-3.24A5.16 5.16 0 0118.912 23c.928-.48 2.008-.72 3.24-.72 1.408 0 2.568.28 3.48.84a5.318 5.318 0 012.088 2.28c.464.96.696 2.056.696 3.288v.576c0 .176-.064.32-.192.432a.555.555 0 01-.408.168h-7.68v.168c.016.464.096.888.24 1.272s.368.688.672.912c.304.224.672.336 1.104.336.32 0 .584-.048.792-.144.224-.112.408-.232.552-.36.144-.144.256-.264.336-.36.144-.16.256-.256.336-.288.096-.048.24-.072.432-.072h2.976c.16 0 .288.048.384.144.112.08.16.2.144.36-.016.272-.152.6-.408.984s-.632.768-1.128 1.152c-.48.368-1.088.672-1.824.912s-1.592.36-2.568.36zm-2.04-7.752h4.056v-.048c0-.512-.08-.96-.24-1.344a1.763 1.763 0 00-.696-.888c-.304-.208-.672-.312-1.104-.312-.432 0-.8.104-1.104.312-.288.208-.512.504-.672.888-.16.384-.24.832-.24 1.344v.048zm16.266 7.752c-1.184 0-2.232-.216-3.144-.648a5.293 5.293 0 01-2.184-1.872c-.528-.832-.816-1.824-.864-2.976a15.86 15.86 0 01-.024-.96c0-.4.008-.728.024-.984.048-1.168.336-2.16.864-2.976a5.074 5.074 0 012.16-1.896c.928-.432 1.984-.648 3.168-.648 1.104 0 2.048.16 2.832.48.784.304 1.424.688 1.92 1.152.496.464.864.944 1.104 1.44.256.48.392.904.408 1.272a.518.518 0 01-.168.432.639.639 0 01-.432.168h-3.048c-.176 0-.312-.04-.408-.12-.096-.08-.184-.2-.264-.36-.192-.496-.44-.848-.744-1.056-.288-.208-.664-.312-1.128-.312-.64 0-1.136.208-1.488.624-.336.416-.52 1.056-.552 1.92a30.13 30.13 0 000 1.704c.032.88.216 1.52.552 1.92.352.4.848.6 1.488.6.496 0 .888-.104 1.176-.312.288-.208.52-.56.696-1.056.08-.16.168-.28.264-.36.096-.08.232-.12.408-.12h3.048c.16 0 .304.064.432.192a.457.457 0 01.168.408c-.016.272-.096.592-.24.96a5.087 5.087 0 01-.672 1.128 5.45 5.45 0 01-1.2 1.128c-.48.336-1.064.608-1.752.816-.688.208-1.488.312-2.4.312zM48.59 35a.639.639 0 01-.432-.168.585.585 0 01-.168-.432v-8.736h-3.648a.639.639 0 01-.432-.168.585.585 0 01-.168-.432V23.12c0-.176.056-.32.168-.432a.639.639 0 01.432-.168h11.28c.16 0 .296.056.408.168a.548.548 0 01.192.432v1.944c0 .176-.064.32-.192.432a.555.555 0 01-.408.168h-3.648V34.4c0 .176-.056.32-.168.432a.585.585 0 01-.432.168H48.59zm9.98 0a.585.585 0 01-.431-.168.585.585 0 01-.168-.432V23.12c0-.176.056-.32.168-.432a.585.585 0 01.432-.168h2.832c.16 0 .296.056.408.168a.548.548 0 01.192.432v3.984h4.32V23.12c0-.176.056-.32.168-.432a.585.585 0 01.432-.168h2.832c.16 0 .296.056.408.168a.548.548 0 01.192.432V34.4c0 .176-.064.32-.192.432a.555.555 0 01-.408.168h-2.832a.585.585 0 01-.432-.168.585.585 0 01-.168-.432v-4.152h-4.32V34.4c0 .176-.064.32-.192.432a.555.555 0 01-.408.168H58.57zm15.281 0a.555.555 0 01-.408-.168.555.555 0 01-.168-.408V23.12c0-.176.056-.32.168-.432a.585.585 0 01.432-.168h2.832c.16 0 .296.056.408.168a.548.548 0 01.192.432v8.76l-1.08-.528 5.928-8.448c.08-.112.176-.2.288-.264.112-.08.24-.12.384-.12h2.568c.16 0 .296.056.408.168a.555.555 0 01.168.408V34.4c0 .176-.056.32-.168.432a.585.585 0 01-.432.168H82.54a.585.585 0 01-.432-.168.585.585 0 01-.168-.432v-8.496l1.104.216-5.976 8.496a.903.903 0 01-.264.288.81.81 0 01-.408.096h-2.544zm25.121 2.832a.548.548 0 01-.432-.192.585.585 0 01-.168-.432V35H89.18a.585.585 0 01-.432-.168.585.585 0 01-.168-.432V23.12c0-.176.056-.32.168-.432a.585.585 0 01.432-.168h2.832c.16 0 .296.056.408.168a.548.548 0 01.192.432v8.736h4.128V23.12c0-.176.056-.32.168-.432a.639.639 0 01.432-.168h2.832c.176 0 .32.056.432.168a.585.585 0 01.168.432v8.736h1.032c.176 0 .32.056.432.168a.585.585 0 01.168.432v4.752c0 .176-.056.32-.168.432a.548.548 0 01-.432.192h-2.832zM104.93 35a.585.585 0 01-.432-.168.585.585 0 01-.168-.432V23.12c0-.176.056-.32.168-.432a.585.585 0 01.432-.168h2.832c.176 0 .32.056.432.168a.548.548 0 01.192.432v3.24h2.184c1.616 0 2.864.392 3.744 1.176.88.768 1.32 1.832 1.32 3.192 0 1.392-.464 2.456-1.392 3.192-.912.72-2.184 1.08-3.816 1.08h-5.496zm3.36-2.76h1.92c.624 0 1.08-.112 1.368-.336.288-.24.432-.632.432-1.176 0-.544-.144-.952-.432-1.224-.272-.272-.728-.408-1.368-.408h-1.92v3.144zm9.408 2.76a.639.639 0 01-.432-.168.585.585 0 01-.168-.432V23.12c0-.176.056-.32.168-.432a.639.639 0 01.432-.168h2.856c.16 0 .296.056.408.168a.548.548 0 01.192.432V34.4c0 .176-.064.32-.192.432a.555.555 0 01-.408.168h-2.856z" fill="#000"/></svg>