<svg width="40" height="40" fill="none" xmlns="http://www.w3.org/2000/svg"><path d="M40 20c0-6.516-5.29-11.87-11.871-11.87-2.839 0-5.42.967-7.484 2.644 1.549 1.484 2.774 3.355 3.355 5.484h-.968c-.645-1.87-1.677-3.548-3.096-4.903-1.42 1.355-2.452 3.032-3.097 4.903h-.968c.645-2.129 1.806-4 3.355-5.484-2.065-1.677-4.58-2.645-7.42-2.645C5.29 8.13 0 13.484 0 20s5.29 11.871 11.871 11.871c2.839 0 5.42-1.032 7.42-2.645a12.648 12.648 0 01-3.356-5.484h.968c.645 1.871 1.678 3.548 3.097 4.903 1.42-1.355 2.516-3.032 3.097-4.903h.967c-.645 2.13-1.806 4-3.354 5.484a11.759 11.759 0 007.483 2.645C34.71 31.871 40 26.516 40 20.001z" fill="#858FA4"/><g fill="#1A1A25"><path d="M31.29 22.774l.839-4.387h1.032l.129.452c.194-.194.516-.452 1.161-.452l-.322 1.162c-.323 0-.839-.065-1.226 1.225l-.387 2H31.29zM15.484 17.29h1.161l-.258 1.162h.645l-.193.903h-.58l-.324 1.742c-.064.322 0 .645.646.516l-.13.968c-.257.193-.58.193-.903.193-.258 0-1.16-.193-.967-1.355l.903-4.129zm5.162 3.549c.129-.71.451-2.452-1.613-2.452-1.936 0-2.194 1.936-2.194 2.194-.064.258-.064 2.193 2 2.193.516 0 1.226-.064 1.549-.193l.193-.904c-.193.065-.839.13-1.355.13-.451 0-1.226 0-1.096-.968h2.516zm-6.324-1.419l.259-.904c-.581-.193-1.033-.193-1.162-.193-.193 0-1.613 0-1.806 1.032-.194.838.129 1.161.387 1.29.451.194.71.387.968.516.322.13.258.645-.13.645-.193 0-.967.065-1.548-.129l-.193.904c.58.129.967.129 1.419.129.323 0 1.742.064 1.935-1.226.13-.645-.193-.903-.387-1.097-.258-.129-.58-.387-.838-.452-.258-.129-.452-.516 0-.645.193.065.774.065 1.096.13zM6.58 22.774l1.033-5.29h-2l-1.42 3.226-.258-3.226h-1.87l-1.033 5.29h1.162l.774-3.806.322 3.806h1.097l1.677-3.742-.71 3.742h1.227zm1.356-4.258l-.194.968c.323 0 1.097-.13 1.484-.13s.903-.064.71.581c-.323 0-2.452-.322-2.774 1.549-.13.903.645 1.355 1.226 1.355.58 0 .774-.13.967-.258l.13.258h1.096l.452-2.387c.129-.581.322-2-1.678-2-.258-.065-.645-.065-1.42.064zm19.29.194c-.322-.194-.516-.194-.903-.194s-1.29.387-1.42 1.42c-.193 1.29.646 1.87 1.871 1.483l.323 1.097c-.387.194-.774.258-1.42.258-1.225 0-2.58-1.097-2-3.355.452-1.613 1.872-2.258 2.71-2.193.968.064 1.355.387 1.613.71l-.774.774zm10.129.193c-.258-.193-.387-.516-.903-.516-.646 0-1.678-.129-2.259 1.871-.387 1.355.388 2.516 1.226 2.516.387 0 .774-.193 1.033-.322l.129.322h1.29l1.032-5.548h-1.226l-.322 1.677z"/><path d="M28.065 18.516l-.194.968c.323 0 1.097-.13 1.484-.13s.839-.064.71.581c-.323 0-2.452-.322-2.774 1.549-.13.903.645 1.355 1.225 1.355.581 0 .775-.13.968-.258l.13.258h1.096l.452-2.387c.129-.581.322-2-1.678-2-.193-.065-.645-.065-1.42.064z"/></g><path d="M18.13 20h1.484c.064-.452-.065-.774-.516-.774-.517 0-.84.258-.968.774zm-8.387.839c-.194 0-.646-.13-1.033.129-.387.258-.516.71-.064.838.387.13.903-.129 1.032-.516l.065-.451zm27.225-.129c.13-.387.064-.904-.065-1.097-.387-.516-1.225-.13-1.483.839-.194.645.193 1.096.58 1.096.452 0 .71-.322.968-.838zm-7.032.129c-.194 0-.645-.13-1.032.129-.387.258-.517.71-.065.838.387.13.968-.129 1.032-.516l.065-.451z" fill="#858FA4"/><path d="M20.645 22.774l.84-4.322h1.032l.128.451c.194-.193.517-.451 1.162-.451l-.323 1.161c-.258 0-.839-.065-1.226 1.226l-.387 2h-1.226" fill="#1A1A25"/><path d="M11.871 8.13c-5.225 0-9.677 3.418-11.225 8.128H16c.645-2.129 1.807-4 3.355-5.484-2.129-1.613-4.71-2.645-7.484-2.645zM20 11.42a11.802 11.802 0 00-3.097 4.903h6.194c-.645-1.871-1.678-3.549-3.097-4.904zm8.13-3.29c-2.84 0-5.42.967-7.485 2.644A12.648 12.648 0 0124 16.258h15.355C37.871 11.548 33.42 8.13 28.13 8.13z" fill="#858FA4"/></svg>