<svg width="40" height="40" fill="none" xmlns="http://www.w3.org/2000/svg"><path d="M16.016 14.048l-2.033 11.93h3.252l2.034-11.93h-3.253zm-4.759.013l-3.184 8.136-.34-1.229c-.628-1.48-2.41-3.605-4.504-4.945l2.912 9.948 3.44-.005 5.12-11.907-3.444.002z" fill="#858FA4"/><path d="M6.5 14.915c-.19-.727-.738-.943-1.417-.97H.042L0 14.184c3.923.952 6.518 3.245 7.595 6.002L6.5 14.915zm19.359 1.42a6.003 6.003 0 012.433.456l.294.138.44-2.585a8.392 8.392 0 00-2.913-.501c-3.213 0-5.477 1.618-5.495 3.937-.02 1.713 1.613 2.67 2.848 3.24 1.267.586 1.691.958 1.685 1.481-.01.799-1.01 1.165-1.944 1.165-1.302 0-1.993-.18-3.061-.625l-.42-.19-.456 2.67c.76.333 2.165.62 3.622.635 3.418 0 5.639-1.599 5.662-4.076.014-1.356-.853-2.39-2.732-3.24-1.137-.553-1.833-.92-1.826-1.48 0-.495.59-1.025 1.863-1.025zm11.511-2.274h-2.513c-.78 0-1.36.212-1.703.99l-4.828 10.933h3.415s.556-1.47.683-1.792l4.163.005c.097.416.397 1.787.397 1.787H40L37.37 14.06zm-4.01 7.69l1.295-3.335c-.018.033.265-.69.433-1.139l.219 1.029.753 3.444h-2.7z" fill="#858FA4"/></svg>